<svg id="Capa_1" data-name="Capa 1" xmlns="http://www.w3.org/2000/svg" viewBox="0 0 447.89 439.08"><title>pullups</title><path d="M32.2,122H90.76a35,35,0,0,0,3.4,17.92h-62Z" transform="translate(-32.2 -32.36)"/><path d="M301,182.93v1.75q0,39.62,0,79.24a9,9,0,0,0,.44,2.72q12.6,38.3,25.24,76.57c2,6.06,2.21,12-1,17.72a27,27,0,0,1-4.33,5.8q-18.76,18.94-37.68,37.75c-.16.16-.34.29-.59.51-.3-.49-.58-.91-.83-1.35Q272,385.58,261.8,367.52a1.64,1.64,0,0,1,.18-2.29c5.9-6.68,11.74-13.41,17.6-20.12.47-.54.84-1,.44-1.81q-11.73-25.07-23.39-50.17c-.07-.16-.18-.31-.44-.74-.48,2-.92,3.69-1.34,5.42q-7.68,32.37-15.39,64.73a3.25,3.25,0,0,0,.42,2.61q20.43,36,40.8,72a22.94,22.94,0,0,1-7.6,31,21.64,21.64,0,0,1-25.58-2,27.85,27.85,0,0,1-6.57-8.1q-21.74-39.18-43.56-78.33A24,24,0,0,1,194.65,363c3.9-21.13,7.65-42.29,11.47-63.43q3-16.65,6-33.29a9.41,9.41,0,0,0,.14-1.67V183.84l-1.47.72-49.67,25.69c-4.08,2.11-8.19,2.48-12-.43a13.18,13.18,0,0,1-3.56-4.56Q130,173.15,114.55,140.94c-1.67-3.47-3.5-6.89-5-10.45a16.54,16.54,0,0,1,14.16-22.7,15.53,15.53,0,0,1,12.82,5.47,45.66,45.66,0,0,1,4.79,7.49,2,2,0,0,0,2,1.24q19.38-.06,38.78,0,93.51,0,187,0a2.32,2.32,0,0,0,2.43-1.47A42.47,42.47,0,0,1,376,113.1c4.24-5.15,9.79-7.57,16.41-5.64,6.79,2,10.94,6.65,12.23,13.71a15.83,15.83,0,0,1-1.53,9.9q-17.79,36.88-35.6,73.75c-2.9,6-9,7.8-15.16,4.63q-17.08-8.8-34.15-17.66l-15.77-8.16C302.05,183.42,301.63,183.23,301,182.93ZM196.12,140H151.19l12.73,25Zm165.55,0H316.8l32.58,24.12C353.48,156,357.53,148.09,361.67,140Z" transform="translate(-32.2 -32.36)"/><path d="M256.17,113a40.32,40.32,0,1,1,40.35-40.33A40.43,40.43,0,0,1,256.17,113Z" transform="translate(-32.2 -32.36)"/><path d="M480.09,139.84H418.74a33.87,33.87,0,0,0,3.78-17.79h57.57Z" transform="translate(-32.2 -32.36)"/></svg>