<?xml version="1.0" encoding="utf-8"?>
<!-- Generator: Adobe Illustrator 23.0.2, SVG Export Plug-In . SVG Version: 6.00 Build 0)  -->
<svg version="1.1" id="Capa_1" xmlns="http://www.w3.org/2000/svg" xmlns:xlink="http://www.w3.org/1999/xlink" x="0px" y="0px"
	 viewBox="0 0 512 512" style="enable-background:new 0 0 512 512;" xml:space="preserve">
<style type="text/css">
	.st0{display:none;fill:#FFFFFF;}
</style>
<title>ionicons-v5-e</title>
<g>
	<path d="M416,64H96c-35.3,0-64,28.7-64,64v256c0,35.3,28.7,64,64,64h320c35.3,0,64-28.7,64-64V128C480,92.7,451.3,64,416,64z
		 M157.8,257.4c-42.4-16.9-62.6-60.1-72.5-101.9c-3.3-17.1-4.9-40.6,17.2-46c8.9-2.2,16.4,2.4,24.2,5.8c8.6,3.8,12.8,4.5,21.4,0.4
		c3.8-1.8,7.3-4.4,11.3-5.8c16.3-5.6,31.1,4.5,36.6,20.1c3.8,10.8,2.3,22.3,1.9,33.5c-0.4,12.8,1,25.2,5.4,37.3
		c5.9,16.4,19.7,35.9,6.8,52.8C198.5,269,173,263.5,157.8,257.4z M435.5,276.3c0,0.1,0,0.1,0,0.2c0,0.5-0.1,1.1-0.2,1.7
		c-2.4,9.9-7.9,16.3-15.2,23.1c-9,8.5-15.7,17.6-21.8,28.4c-11.1,19.9-21.2,41-41.8,52.8c-19.5,11.1-43.8,13.9-65.9,14.9
		c-23.5,1.1-50.4,0.3-72.6-8.4c-14.4-5.6-28.8-16.8-20.9-33.5c8.9-18.7,31.1-29,48.4-38c22.6-11.7,44.2-25.2,64.2-41
		c17.7-14,32.8-32.4,51.9-44.3C395.5,211,439.6,235.1,435.5,276.3z"/>
	<g>
		<path d="M301.3,327.2c-7.6,0-13.8,6.2-13.8,13.8c0,7.6,6.2,13.8,13.8,13.8c7.6,0,13.8-6.2,13.8-13.8
			C315,333.3,308.9,327.2,301.3,327.2z"/>
		<path d="M357.9,288.5c-7.6,0-13.8,6.2-13.8,13.8c0,7.6,6.2,13.8,13.8,13.8c7.6,0,13.8-6.2,13.8-13.8
			C371.6,294.7,365.5,288.5,357.9,288.5z"/>
		<path class="st0" d="M370.3,243.2c-18.9,10.6-33.9,29.8-50.9,43.3c-17.1,13.6-35.3,25.8-54.4,36.5c-9.4,5.2-19.1,9.8-28.5,15.1
			c-8.2,4.7-23.5,12.9-26.7,22.8c-7.1,21.6,58.1,22.9,69.8,22.9c24-0.1,53.1-1.8,73.6-15.7c17.7-12,25.5-33.1,36-50.8
			c4.5-7.5,9.4-14.6,15.5-20.8c6.7-6.8,14.3-11.8,16.8-21.5C423.5,246.1,395.7,229,370.3,243.2z M301.3,354.7
			c-7.6,0-13.8-6.2-13.8-13.8c0-7.6,6.2-13.8,13.8-13.8c7.6,0,13.8,6.2,13.8,13.8C315,348.5,308.9,354.7,301.3,354.7z M357.9,316.1
			c-7.6,0-13.8-6.2-13.8-13.8c0-7.6,6.2-13.8,13.8-13.8c7.6,0,13.8,6.2,13.8,13.8C371.6,309.9,365.5,316.1,357.9,316.1z"/>
	</g>
	<g>
		<path d="M148.9,167.8c-7.4,0-13.5,6-13.5,13.5c0,7.4,6,13.5,13.5,13.5c7.4,0,13.5-6,13.5-13.5
			C162.4,173.8,156.4,167.8,148.9,167.8z"/>
		<path class="st0" d="M190.2,204.5c-5-14-6.4-28.5-5.7-43.3c0.7-14.5,0.9-47.1-23-37.3c-10.1,4.1-17.3,11-29,8.5
			c-5.9-1.3-10.8-4.8-16.2-7.2c-20.9-9.3-20.1,14.3-17.7,26.6c7.3,30.9,19.5,63.2,46.1,82.7c11.9,8.7,28.5,16.5,43.7,15
			C214.2,247.1,195,218.1,190.2,204.5z M148.9,194.7c-7.4,0-13.5-6-13.5-13.5c0-7.4,6-13.5,13.5-13.5c7.4,0,13.5,6,13.5,13.5
			C162.4,188.7,156.4,194.7,148.9,194.7z"/>
	</g>
</g>
</svg>
