<?xml version="1.0" encoding="utf-8"?>
<!-- Generator: Adobe Illustrator 23.0.2, SVG Export Plug-In . SVG Version: 6.00 Build 0)  -->
<svg version="1.1" id="Capa_1" xmlns="http://www.w3.org/2000/svg" xmlns:xlink="http://www.w3.org/1999/xlink" x="0px" y="0px"
	 viewBox="0 0 512 512" style="enable-background:new 0 0 512 512;" xml:space="preserve">
<style type="text/css">
	.st0{display:none;opacity:0.31;}
	.st1{display:inline;}
	.st2{display:inline;fill:#FFFFFF;}
	.st3{fill:#FFFFFF;}
	.st4{fill:#F5DC09;}
</style>
<title>ionicons-v5-f</title>
<g class="st0">
	<path class="st1" d="M293.5,505.1c-32.2-3.7-64.6-6.2-96.5-11.2C79,475.2,16.9,409.7,3.5,299.6C-7.1,212.2,6.1,127.5,45.1,47
		c26.5-54.7,92-65,123.8-13.1c62.7,102.3,166.9,161.4,257,235.9c29.1,24.1,55.7,53.7,73.9,85.5c25.8,45.3,10.1,91.7-40.8,112.2
		c-51.3,20.7-108,30.1-162.3,44.5C295.6,509.7,294.6,507.4,293.5,505.1z M109.6,36.6c-71.5,88.3-83.8,181.5-59.7,278
		c8.8,35,31.6,74,61.1,96.3c90.3,68.4,196.4,67,302.6,37.6c54.3-15,68.8-53.1,38.6-96.5c-15.5-22.2-35.5-43.4-58.1-59.3
		c-83.1-58.5-171.5-110.9-227.2-197C153.9,75.6,132.7,60.1,109.6,36.6z"/>
	<path class="st2" d="M112.4,311.6c27.3,19.1,43.3,30.3,59.3,41.5c12.1-15.8,30.8-30.7,33.6-47.8c1.6-9.5-23.7-32.2-36.3-31.9
		C153.8,273.8,139.2,292.3,112.4,311.6z M150.6,111.9c-16.9,1.1-43.5-3.6-48.9,4.3c-22.4,32.6-28.2,70.2-24.4,113.1
		C119.5,199.8,80.9,132.8,150.6,111.9z"/>
	<path class="st1" d="M112.4,311.6c26.8-19.3,41.5-37.9,56.6-38.2c12.7-0.3,37.9,22.4,36.3,31.9c-2.9,17.1-21.5,32-33.6,47.8
		C155.7,341.9,139.7,330.7,112.4,311.6z"/>
	<path class="st1" d="M150.6,111.9c-69.7,20.9-31.1,87.9-73.3,117.4c-3.8-42.9,2.1-80.5,24.4-113.1
		C107.1,108.3,133.7,113,150.6,111.9z"/>
</g>
<g>
	<path class="st3" d="M1865-416c-433.1,0-866.2,0-1300,0c0,433.5,0,866.8,0,1300c-0.3-0.2-0.9-0.3-1-0.5c-0.1-1.3,0-2.7,0-4
		c0-432.2,0-864.3,0-1296.5c432.2,0,864.3,0,1296.5,0C1862-417,1863.5-416.3,1865-416z"/>
	<path class="st4" d="M607.7,193.3c1.1-42.6,3.5-88.1,20.3-131.2c4.5-11.5,10.7-22.7,18.2-32.4c14.5-18.8,34.5-20.7,53.5-6.4
		c14.7,11,24.8,25.9,33.4,41.8c20.5,37.6,32.3,78.2,40.9,119.8c11.2,54.1,15.2,108.8,12.3,163.8c-1.9,36.4-6.7,72.6-21.6,106.4
		c-4.3,9.6-9.8,19.1-16.5,27.2c-14.7,17.8-34.4,20.1-52.3,5.5c-9.9-8.1-18.7-18.2-25.9-28.9c-18.9-27.8-29.9-59.3-39-91.4
		C615.4,311.5,608.7,254.3,607.7,193.3z"/>
	<path class="st4" d="M418.6,148c1-25.4,1.4-48.9,9.3-71.3c2.7-7.8,6.3-15.5,11-22.2c9.4-13.6,23.6-17.9,38.4-10.7
		c9.2,4.4,18,10.7,25.4,17.8c24.2,23.3,40.3,52.3,54.4,82.3c28.3,60.2,46.2,123.5,54.8,189.5c4.9,37.1,7.5,74.3-0.5,111.1
		c-2.9,13.2-8,26.4-14.8,38.1c-8.6,14.9-23.6,18.2-39.5,11.4c-14-6-24.7-16.4-34.3-27.8c-25.2-29.8-42.4-64.2-56.9-100
		c-22.3-55-36.9-112-43.8-170.9C420,178.8,419.6,162.4,418.6,148z"/>
	<path class="st4" d="M264.6,201.5c3.3-16.5,5.6-33.2,10.2-49.3c3.5-12.5,11.9-22.8,26-23.7c7.4-0.5,16.3,0.8,22.2,4.8
		c13,8.8,26.1,18.4,36.4,30.1c35.1,39.9,56.9,87.3,73.9,137.1c12.6,36.8,21,74.5,22.9,113.5c1,21.1-0.2,42.2-9,62
		c-5,11.3-13.1,20.7-26,20.6c-8.9-0.1-19.1-2.7-26.3-7.7c-12.4-8.7-24.3-19-34.1-30.5c-31-36.3-51.2-78.7-67.4-123.2
		c-15.6-43-25.9-87.1-26.9-133.1C266,201.9,265.3,201.7,264.6,201.5z"/>
	<path class="st4" d="M906.5,291.5c32.9,0.3,61.8,10.8,85.3,34.2c39.1,38.9,38.9,98,0,137.1c-44.7,44.9-123.5,45.7-169.1,1.6
		c-47.6-45.9-38.9-119.2,18.5-154.8C861.2,297.3,883,291.3,906.5,291.5z"/>
	<path class="st4" d="M172.1,370.4c2.7-11.2,4.2-24,8.9-35.6c9.8-24.3,33.1-33.8,57.9-25c17.8,6.3,31.5,18.1,42.8,32.8
		c23.2,30.3,34.5,64.4,31.2,102.7c-0.3,3.9-1.1,7.7-2.1,11.5c-9.7,37.4-41.3,50.9-74.7,31.2c-30.1-17.8-46.9-45.9-56.6-78.5
		C175.9,397.5,174.7,384.7,172.1,370.4z"/>
	<path class="st3" d="M1194.5,15.2c97.1,0,192.5-3.9,287.3,1.6c48.3,2.8,86.4,33.6,99.6,85c14.6,56.7-2.1,96.5-60.1,143.3
		c41.7,19.7,76.2,45.4,83,94.7c11,79.9-29.8,146-111,153.1c-98.2,8.6-197.7,2-298.8,2C1194.5,336.9,1194.5,176.1,1194.5,15.2z
		 M1319.3,302.3c0,32.3,0,58.9,0,87.9c38.9,0,75.8,1.4,112.7-0.5c25.5-1.3,45.3-14.8,45.2-43c0-30.7-22.5-42.4-48.8-43.9
		C1392.8,300.7,1357.1,302.3,1319.3,302.3z M1318.9,208.4c37.7-2.1,71-2.4,103.9-6.2c23.5-2.7,40.4-19.3,33-42.5
		c-4.7-14.8-22.4-33.2-36.7-35.6c-32.1-5.3-65.7-1.7-100.3-1.7C1318.9,151.1,1318.9,176.4,1318.9,208.4z"/>
	<path class="st3" d="M3774.6,15.7c93.7,0,185.7-5.8,276.6,1.9c68.5,5.8,114.3,50.9,129,121.6c15.4,73.7-10.2,139.2-70.3,179.6
		c-5.3,3.6-10.7,7-19.8,12.9c34.8,54.4,69.3,108.3,108.7,169.8c-50.9,0-95.2,0.9-139.4-0.9c-7.5-0.3-16.3-11.4-21.6-19.5
		c-19.9-30.2-40.7-60.2-57.3-92.3c-16.3-31.6-38.5-43-77.1-31.5c0,44.8,0,91.9,0,141.7c-45.4,0-85.9,0-128.8,0
		C3774.6,337,3774.6,176.1,3774.6,15.7z M3904,249.1c40.9-3.2,77-3.3,112-9.6c27.8-5,37.7-28,37-55.6c-0.7-28.8-15.9-48.6-42.7-51.5
		c-35-3.8-70.8-0.9-106.3-0.9C3904,170.8,3904,206.4,3904,249.1z"/>
	<path class="st3" d="M2292.7,511c-140.6,0.1-247.5-109.2-247.9-253.4C2044.4,112.2,2153,0.1,2294.1,0.2
		c139.3,0.1,248.5,111.5,249,254.1C2543.7,398.1,2433.6,510.9,2292.7,511z M2176.9,253.3c-0.8,76.1,48.6,133.4,115.7,134.1
		c67.8,0.7,119.2-55.8,119.1-130.9c-0.1-74-52.6-132.8-118.7-133.1C2227.5,123.2,2177.6,178.9,2176.9,253.3z"/>
	<path class="st3" d="M3732.2,501.9c-42.1,0-80.6,2.1-118.5-1.4c-10.5-0.9-23.3-16.7-28.4-28.6c-24.8-57.7-24-58-87.9-58
		c-14.2,0-28.4,0-42.6,0c-67.8,0-67.1,0.3-95.5,63.6c-4.6,10.3-18,22.5-28.2,23.3c-35.8,2.8-71.9,1.1-112.7,1.1
		c4.4-14.3,7-25.2,11.1-35.4c56.7-142.7,114.1-285,169.9-428c9.4-24,21.1-33,47.8-32.6c89.6,1.3,89.5,0.1,122,81.8
		c49.1,123.5,98.4,246.8,147.5,370.3C3721.8,470.9,3726,484.2,3732.2,501.9z M3473.7,169.6c-18.8,51-34.2,92.9-50.3,136.6
		c36.1,0,66.3,0,100.8,0C3507.6,261.5,3492.3,220,3473.7,169.6z"/>
	<path class="st3" d="M4574.3,330c29.9,22.6,60.4,45.7,90.6,68.5c-54.8,92.4-156.2,132-262.8,104.7
		c-104.2-26.7-176.4-123.7-178.8-240.5C4220.8,145,4288.8,45,4394,12.1c104.6-32.8,210.3,2.5,268.4,92c-30,24.8-60.4,50-92.8,76.9
		c-32.1-32.5-65.9-64-113.9-54c-23.7,5-49.4,18.3-66.2,35.6c-47.5,49.2-43.9,143.2,3.3,192C4439.8,403.2,4493.4,396.5,4574.3,330z"
		/>
	<path class="st3" d="M3023.7,104.6c-31.8,26-61.7,50.5-91.3,74.7c-83.8-65-137.9-69.7-183.2-16.9c-45.7,53.2-41.8,147.9,8,195.5
		c47.9,45.8,107.7,36.9,176.3-29c14.5,10.7,29.7,22,44.9,33.3c15.5,11.6,30.9,23.4,46,34.8c-36.5,81.2-140.7,129.2-239.3,111.2
		c-114-20.8-191.8-111.8-200.3-234.7c-8.2-118.6,60.7-225.8,167.5-260.6C2858-21.5,2966.3,14.2,3023.7,104.6z"/>
	<path class="st3" d="M1798.1,14c0,123.7,0,243.5,0,366.4c74.3,0,145.1,0,219.6,0c0,40.8,0,78.5,0,118.9c-114.8,0-229.3,0-347.1,0
		c0-160.6,0-321.4,0-485.3C1711.1,14,1751.6,14,1798.1,14z"/>
</g>
</svg>
