<svg id="Capa_1" data-name="Capa 1" xmlns="http://www.w3.org/2000/svg" viewBox="0 0 436.85 248.79"><defs><style>.cls-1{fill:#f5dc09;}</style></defs><title>logo</title><path class="cls-1" d="M229.66,185.55c.58-21.91,1.78-45.33,10.46-67.52a68.54,68.54,0,0,1,9.37-16.7C257,91.66,267.26,90.7,277.05,98c7.57,5.67,12.75,13.34,17.21,21.5,10.56,19.33,16.62,40.23,21.05,61.66a330.45,330.45,0,0,1,6.33,84.3c-1,18.74-3.43,37.36-11.1,54.76a60.37,60.37,0,0,1-8.49,14c-7.57,9.16-17.69,10.35-26.9,2.82a70.07,70.07,0,0,1-13.32-14.85c-9.73-14.32-15.41-30.52-20.08-47C233.63,246.38,230.19,217,229.66,185.55Z" transform="translate(-5.52 -93.21)"/><path class="cls-1" d="M132.35,162.21c.52-13.06.69-25.17,4.77-36.69a49,49,0,0,1,5.66-11.45c4.83-7,12.14-9.2,19.77-5.52a51.24,51.24,0,0,1,13,9.14c12.45,12,20.73,26.89,28,42.36a328.11,328.11,0,0,1,28.2,97.5c2.5,19.07,3.85,38.21-.27,57.17a68.86,68.86,0,0,1-7.63,19.61c-4.45,7.65-12.15,9.35-20.32,5.86-7.22-3.08-12.7-8.42-17.66-14.3-13-15.32-21.81-33-29.29-51.46a337.39,337.39,0,0,1-22.56-88C133.07,178.09,132.85,169.63,132.35,162.21Z" transform="translate(-5.52 -93.21)"/><path class="cls-1" d="M53.1,189.78c1.7-8.46,2.9-17.07,5.24-25.35,1.82-6.43,6.12-11.72,13.4-12.21,3.8-.25,8.41.42,11.44,2.47,6.7,4.51,13.44,9.46,18.74,15.48,18.06,20.53,29.25,45,38,70.56,6.49,18.94,10.82,38.35,11.79,58.39.52,10.88-.1,21.71-4.62,31.88-2.59,5.83-6.72,10.67-13.39,10.6a25.3,25.3,0,0,1-13.51-4,94,94,0,0,1-17.56-15.7C86.73,303.25,76.29,281.4,68,258.5c-8-22.12-13.3-44.83-13.85-68.47Z" transform="translate(-5.52 -93.21)"/><path class="cls-1" d="M383.41,236.06c16.93.17,31.81,5.57,43.91,17.62,20.1,20,20,50.42,0,70.54-23,23.11-63.55,23.5-87,.83-24.49-23.64-20-61.36,9.54-79.64A61.9,61.9,0,0,1,383.41,236.06Z" transform="translate(-5.52 -93.21)"/><path class="cls-1" d="M5.52,276.68c1.39-5.74,2.19-12.36,4.6-18.31,5.06-12.52,17-17.38,29.77-12.88,9.16,3.22,16.23,9.32,22,16.88,11.92,15.58,17.76,33.11,16,52.87a37,37,0,0,1-1.09,5.91c-5,19.27-21.23,26.21-38.42,16.07-15.51-9.15-24.16-23.61-29.13-40.39C7.45,290.61,6.85,284,5.52,276.68Z" transform="translate(-5.52 -93.21)"/></svg>